<?xml version="1.0" standalone="no"?><!-- Generator: Gravit.io --><svg xmlns="http://www.w3.org/2000/svg" xmlns:xlink="http://www.w3.org/1999/xlink" style="isolation:isolate" viewBox="436 46 156 111" width="156" height="111"><g style="isolation:isolate" id="Layer 1" filter="url(#aoYx8rpsQC4WahKt6tCxRLhRgs5R13lM)"><path d="M 465 56 L 579 56 C 580.656 56 582 57.344 582 59 L 582 130 C 582 131.656 580.656 133 579 133 L 465 133 C 463.344 133 462 131.656 462 130 L 462 59 C 462 57.344 463.344 56 465 56 Z" style="stroke:none;fill:#EBEBEB;stroke-miterlimit:10;"/><path d="M 455 64 L 569 64 C 570.656 64 572 65.344 572 67 L 572 138 C 572 139.656 570.656 141 569 141 L 455 141 C 453.344 141 452 139.656 452 138 L 452 67 C 452 65.344 453.344 64 455 64 Z" style="stroke:none;fill:#0097A7;stroke-miterlimit:10;"/><path d="M 449.08 70 L 562.92 70 C 564.62 70 566 71.38 566 73.08 L 566 143.92 C 566 145.62 564.62 147 562.92 147 L 449.08 147 C 447.38 147 446 145.62 446 143.92 L 446 73.08 C 446 71.38 447.38 70 449.08 70 Z" style="stroke:none;fill:#EBEBEB;stroke-miterlimit:10;"/></g><defs><filter id="aoYx8rpsQC4WahKt6tCxRLhRgs5R13lM" x="-200%" y="-200%" width="400%" height="400%"><feOffset xmlns="http://www.w3.org/2000/svg" in="SourceAlpha" result="offOut" dx="0" dy="0"/><feGaussianBlur xmlns="http://www.w3.org/2000/svg" in="offOut" result="blurOut" stdDeviation="2.5"/><feComponentTransfer xmlns="http://www.w3.org/2000/svg" in="blurOut" result="opacOut"><feFuncA xmlns="http://www.w3.org/2000/svg" type="table" tableValues="0 0.5"/></feComponentTransfer><feBlend xmlns="http://www.w3.org/2000/svg" in="SourceGraphic" in2="opacOut" mode="normal"/></filter></defs></svg>